<svg id="Camada_1" data-name="Camada 1" xmlns="http://www.w3.org/2000/svg" viewBox="0 0 118 107"><defs><style>.cls-1{fill:#56b6f5;stroke:#56b6f5;stroke-miterlimit:10;stroke-width:3px;}</style></defs><title>Prancheta 1</title><path class="cls-1" d="M24.1,57.07c.85-2.54,1.7-5,2.48-7.53A4,4,0,0,0,26.64,48q-.36-3.79-.79-7.58a3.5,3.5,0,0,0-.43-1.63,80.54,80.54,0,0,0-12.3-13.59,5.27,5.27,0,0,0-.58-.41,18.4,18.4,0,0,1-3.81,2c-2.1.54-4-.74-4.83-2.89a4.88,4.88,0,0,1,1.65-6,29.34,29.34,0,0,1,4.06-1.54,2.26,2.26,0,0,0,1.06-1A34.16,34.16,0,0,1,12,12.09a5,5,0,0,1,6.69-1.77A4.37,4.37,0,0,1,20,17.54c-.36.39-.78.73-1.34,1.26a40.61,40.61,0,0,0,2.71,3.54c3.3,3.48,6.66,6.9,10,10.3a2.88,2.88,0,0,0,1.66.75,41.66,41.66,0,0,1,12.62,3.14,2.13,2.13,0,0,0,1.11.18,61.15,61.15,0,0,1,34.07,4.16,3.92,3.92,0,0,0,.58.12c-.11-.85-.26-1.64-.29-2.43a8.23,8.23,0,0,1,.16-2.47,2,2,0,0,1,3.34-1A35.9,35.9,0,0,1,95.31,50a11.64,11.64,0,0,0,1.42,2.53,23.13,23.13,0,0,1,4.52,10.23,9.73,9.73,0,0,0,.33,1.16,17.89,17.89,0,0,0,7-4.35c1.05-1,2.1-2.36,3.76-1.69s1.89,2.48,2.09,4.1c.78,6.46-2.66,10.77-7.44,14.33a40.36,40.36,0,0,1-3.86,2.29,17.86,17.86,0,0,1,.81,3.48,17.88,17.88,0,0,1-.6,3.6H112c2.17,0,2.36.24,1.86,2.38a7.26,7.26,0,0,1-6.87,5.61c-.53,0-1.07,0-1.89,0,0,.9,0,1.71,0,2.51s-.34,1.17-1.14,1.15c-.34,0-.69,0-1,0H22.95c-2,0-2.12,0-2-2.12,0-1.24-.37-1.56-1.57-1.56a7.26,7.26,0,0,1-7.42-6.53c-.13-1,.14-1.48,1.23-1.46,2.14,0,4.28,0,6.45,0-1.09-4.71-.4-7.28,2.42-9.11a5.63,5.63,0,0,1,5.59-.72A30.83,30.83,0,0,1,32.13,79a4,4,0,0,0-.32-.55,32.86,32.86,0,0,1-2.26-3.07A2.43,2.43,0,0,0,26.74,74c-5.28.56-11.3-3.15-13.39-8.06-2-4.62.12-8.31,5.12-8.85A50.76,50.76,0,0,1,24.1,57.07Zm3.41-5.51-.54,0c-.38,2-.79,4-1.11,6-.16,1-.43,1.43-1.61,1.21a22.64,22.64,0,0,0-5-.42c-4.67.16-6.52,3.38-4.45,7.57a12.62,12.62,0,0,0,13,6.63,1.8,1.8,0,0,1,2.16.92,59.33,59.33,0,0,0,3.85,5.17c.86,1,1.67.88,2.34-.28a7.85,7.85,0,0,1,7.35-4.25,8,8,0,0,1,7.21,4.5l.44.8h5.7c3.39-4.56,6.91-4.7,11.06-.28.17.18.52.39.71.33a7.35,7.35,0,0,1,5.53.59c1.25-3.16,3.33-5.2,6.71-5.54,3.9-.39,6.53,1.51,8.18,4.89a6,6,0,0,1,1.51-.19,2.85,2.85,0,0,0,2.7-1.26,6.12,6.12,0,0,1,7.66-1.09,2.61,2.61,0,0,0,2,.13A18.37,18.37,0,0,0,112,68.62c1.46-2.66,1.33-5.58.55-8.43-.36-1.31-1.11-1.45-2.18-.56-.45.37-.85.81-1.27,1.22a19.11,19.11,0,0,1-7.21,4.4c-1.48.5-1.67.37-1.85-1.2a19.18,19.18,0,0,0-2.38-7.48,11.32,11.32,0,0,1-1.19,1.82,39.22,39.22,0,0,1-2.93,2.67c-4.38,3.69-9.12,6.76-14.73,8.26-3.51.93-6.63-.27-7.79-3s0-6.19,3.09-8a15.21,15.21,0,0,1,2.67-1.18C79.91,56,83,54.89,86.17,53.76c-1.34-3.55-2.6-7-4-10.38a2.32,2.32,0,0,0-1.21-1,61.28,61.28,0,0,0-26-5.2c-2,0-4.08.31-6.11.48a22.16,22.16,0,0,0,3,2.13,27,27,0,0,1,9.33,9.39A13.14,13.14,0,0,1,63,58c-.78,4.63-3.72,7.78-7.21,10.52-6.36,5-13.23,4.61-19.06-1a33.92,33.92,0,0,1-7.59-11.59C28.58,54.46,28.06,53,27.51,51.57Zm-.67-11.17c.59,3.25.93,6.36,1.73,9.35,1.74,6.52,4.6,12.49,9.63,17.17s10.89,4.94,16.38.82a30.07,30.07,0,0,0,2.35-2c6.12-5.68,6.54-12.26,1.15-18.66A34.58,34.58,0,0,0,41.76,36.56c-2.81-.9-5.75-1.37-8.48-2a32.27,32.27,0,0,1-1.67,4.73C30.69,41,28.87,40.32,26.84,40.39ZM13.4,87.1a2.64,2.64,0,0,0,0,.5c.67,2.94,3.06,4.75,6.38,4.75h86.39a10.7,10.7,0,0,0,2-.23c1.84-.36,4.46-2.69,4.2-5Zm63.5-18.8a25.22,25.22,0,0,0,2.79-.64c6.12-2,11.18-5.74,15.74-10.18a1.73,1.73,0,0,0,.41-1.4c-2-7.64-5.49-14.41-11.63-19.59-.3-.26-.91-.57-1.1-.45a1.58,1.58,0,0,0-.66,1.18,16.52,16.52,0,0,0,.63,4c1.32,3.83,2.79,7.61,4.24,11.39.74,1.93.77,1.92-1.12,2.59-3.22,1.14-6.5,2.16-9.64,3.47a10.46,10.46,0,0,0-3.68,2.73,4.05,4.05,0,0,0-.39,4.69C73.31,67.73,74.83,68.22,76.9,68.31Zm-72-46.36A3.58,3.58,0,0,0,7,25.37C8.63,26,10,25.21,10.85,24s1.69-1.09,2.79-.16A87.62,87.62,0,0,1,26.17,37.41,4.75,4.75,0,0,0,28,38.91c1.09.44,2.23.43,2.87-.9.85-1.75.76-3.29-.31-4.25a85.12,85.12,0,0,1-12.4-13.29c-1.38-1.91-1.37-1.9.34-3.41,1-.88,1.79-1.91,1.43-3.32A3.54,3.54,0,0,0,17,11.16a3.7,3.7,0,0,0-4.56,3.28C12,16.91,11,17.83,8.54,18.07A3.72,3.72,0,0,0,4.89,21.95ZM22.36,95.87h81.23c.33-2.22.33-2.22-1.65-2.22H24C22,93.65,22,93.69,22.36,95.87Zm21-10.22c1.61,0,3.23,0,4.84,0a1.42,1.42,0,0,0,1.61-1.09,6.85,6.85,0,0,0-10.59-7.76A6.63,6.63,0,0,0,37,84.67a1.9,1.9,0,0,0,1.35.93C40,85.72,41.7,85.65,43.36,85.65Zm38.39,0c1.47,0,2.93,0,4.4,0a1.38,1.38,0,0,0,1.54-1,6.59,6.59,0,0,0-2-7.53A6.38,6.38,0,0,0,77.93,77a6.53,6.53,0,0,0-2.22,7.59,1.46,1.46,0,0,0,1.65,1.07C78.82,85.6,80.29,85.65,81.75,85.65Zm-56.13,0a28.12,28.12,0,0,1,2.93,0,1.83,1.83,0,0,0,2.09-1.38A5.42,5.42,0,0,0,29,78.06a5.28,5.28,0,0,0-6.28-.41,5.46,5.46,0,0,0-2.31,6c.39,1.36,1,2.26,2.67,2A16.28,16.28,0,0,1,25.62,85.65Zm36.88,0a14,14,0,0,1,2,0c1.48.22,2.13-.6,2.55-1.82a4.88,4.88,0,1,0-9.38-2.61c-.58,2.71.75,4.41,3.46,4.41Zm35.21,0a13.64,13.64,0,0,1,2,0c1.58.24,2.19-.72,2.59-2A4.86,4.86,0,1,0,93,83.42c.42,1.75,1,2.23,2.82,2.23ZM74.48,85.6a16,16,0,0,1-.54-3,1.7,1.7,0,0,0-1.69-1.82,17.15,17.15,0,0,0-3.4.16c-.07,0-.16.23-.17.36-.16,1.42-.31,2.84-.47,4.3ZM57,85.6a16.66,16.66,0,0,1-.66-3.43c0-1.13-.45-1.54-1.39-1.56a10.8,10.8,0,0,0-2.58.25,1.29,1.29,0,0,0-.75.88c-.21,1.27-.3,2.55-.43,3.87Zm-21.35,0-.57-5H32.57l-.7,5Zm55.67-5.35c-.63.36-1.62.61-1.74,1.07a28.61,28.61,0,0,0-.45,4.27h3Z"/></svg>