<svg id="Camada_1" data-name="Camada 1" xmlns="http://www.w3.org/2000/svg" viewBox="0 0 118 107"><defs><style>.cls-1{fill:#56b6f5;stroke:#56b6f5;stroke-miterlimit:10;stroke-width:3px;}</style></defs><title>Prancheta 1</title><path class="cls-1" d="M59.94,52.66c0,1.47,0,2.59,0,3.71,0,2.48.1,5,0,7.43-.14,2.87,1.25,4.89,3.36,6.53a9.29,9.29,0,0,0,5.85,2c2.1,0,4.2,0,6.3,0a3.62,3.62,0,0,0,3.27-1.76c1.39-2.1,2.8-4.19,4.2-6.28.23-.35.48-.69.7-1,.39-.61.85-1.17,1.61-.65s.33,1.1,0,1.64a55.27,55.27,0,0,0-3.62,5.45c-1.84,3.57-4.61,5-8.54,4.52-1.28-.15-2.6,0-3.9,0A11.45,11.45,0,0,1,60.26,70c-1-1.17-1.49-1.18-2.47,0a11.44,11.44,0,0,1-8.93,4.2c-2.1,0-4.2,0-6.3,0A5.29,5.29,0,0,1,37.9,71.7c-1.62-2.45-3.28-4.88-4.92-7.32-.38-.56-.88-1.21-.11-1.75s1.27.14,1.67.74c1.59,2.37,3.2,4.73,4.76,7.12a3.81,3.81,0,0,0,3.48,1.87c2.1,0,4.2.06,6.3,0a9.28,9.28,0,0,0,8.4-5.27,6.24,6.24,0,0,0,.63-2.64c.07-3.44,0-6.88,0-10.33,0-.37,0-.73-.06-1.27a3.45,3.45,0,0,0-.68.41A11.84,11.84,0,0,1,48.49,57c-2.39,0-4.79,0-7.18,0a5.68,5.68,0,0,1-4.93-2.54c-1.73-2.47-3.57-4.88-5.27-7.37-.28-.41-.41-1.36-.16-1.61.64-.64,1.19-.06,1.61.52,1.77,2.45,3.57,4.88,5.3,7.35a3.9,3.9,0,0,0,3.4,1.79c2.52,0,5,.07,7.56,0a9.44,9.44,0,0,0,9-6,3.51,3.51,0,0,0,.32-1.33c0-4,0-8,0-12a4.39,4.39,0,0,0-.11-.62c-.35.29-.61.47-.82.69a11.49,11.49,0,0,1-8.24,3.5c-2.6.05-5.21,0-7.81,0A5.43,5.43,0,0,1,36.42,37c-.88-1.28-1.86-2.49-2.69-3.8-.22-.34,0-.95,0-1.43.5.12,1.2.08,1.47.4,1,1.19,1.87,2.48,2.75,3.76a3.63,3.63,0,0,0,3.19,1.69c2.64,0,5.29.08,7.93,0a9.2,9.2,0,0,0,8.65-5.85,10,10,0,0,0,.43-3.07c.05-.67.11-1.42.94-1.29.35.06.81.8.84,1.26.32,5.32,3.81,8.8,9.19,9,2.6.07,5.21,0,7.81,0a3.74,3.74,0,0,0,3.28-1.77,45.26,45.26,0,0,1,2.68-3.65c.28-.33,1-.3,1.46-.44,0,.49.21,1.11,0,1.45-1,1.51-2,3-3.17,4.39a5,5,0,0,1-4,1.85c-2.77,0-5.54.07-8.31,0a11.29,11.29,0,0,1-8-3.49c-.2-.2-.42-.38-.84-.76,0,.61-.08,1-.08,1.38q0,4.79,0,9.57a8.51,8.51,0,0,0,6.62,8.62,12.25,12.25,0,0,0,2.85.4c2.39.05,4.79,0,7.18,0a4.15,4.15,0,0,0,3.72-1.93c1.68-2.41,3.43-4.77,5.14-7.16.41-.57.89-1.18,1.63-.64s.24,1.19-.16,1.74c-1.77,2.45-3.55,4.89-5.3,7.35A5.33,5.33,0,0,1,77.17,57c-2.85,0-5.71.06-8.56,0a11.19,11.19,0,0,1-7.82-3.56C60.62,53.2,60.42,53.06,59.94,52.66Z"/><path class="cls-1" d="M95.26,59.62C95.6,52.14,96,45,98.59,38.24a123.4,123.4,0,0,1,6.55-13.58,99.91,99.91,0,0,0,7.72-18.42c0-.16,0-.39.15-.47.39-.28.81-.52,1.22-.77.18.42.59.89.5,1.25-.36,1.46-.84,2.9-1.31,4.33a102.71,102.71,0,0,1-9,19.21c-4.33,7.46-6.16,15.59-7,24.09-.69,7.41.11,14.75.66,22.1.61,8.11,1.26,16.23,1.89,24.34,0,.25.11.56,0,.74-.21.35-.51.86-.82.89a1.19,1.19,0,0,1-.9-.76c-.22-1.36-.31-2.75-.42-4.13q-1.29-16.75-2.56-33.51C95.17,62.14,95.26,60.7,95.26,59.62Z"/><path class="cls-1" d="M23,59.08c-.4,5.77-.77,11.55-1.2,17.32-.61,8-1.26,16.06-1.9,24.09,0,.08,0,.17,0,.25,0,.68-.17,1.34-1,1.25s-.84-.8-.79-1.45c.12-1.8.25-3.6.39-5.4C19.25,85.06,20.31,75,20.78,64.9c.6-12.75-1-25.12-7.78-36.38A89.65,89.65,0,0,1,3.63,7.41c-.22-.74-.87-1.77.39-2.11s1.15.86,1.36,1.56a89.11,89.11,0,0,0,9,20.32c5.39,8.93,7.81,18.66,8.22,29,0,1,.09,1.93.13,2.89Z"/><path class="cls-1" d="M32.2,24.56C25.62,24.46,20.75,24,16.14,22c-.73-.31-2-.49-1.55-1.67s1.51-.32,2.25,0c5.75,2.32,11.75,2.68,17.82,2.17a39.82,39.82,0,0,0,17.53-5.36c.35-.21,1,.08,1.51.14-.21.47-.3,1.15-.66,1.39A33,33,0,0,1,40.8,23.44C37.42,24,34,24.34,32.2,24.56Z"/><path class="cls-1" d="M88.75,24.56c-8.59-.18-15.52-1.38-21.94-4.77-.59-.31-1.16-.67-1.74-1s-1.14-.74-.7-1.49,1.07-.43,1.63-.08a34,34,0,0,0,10.83,4.28c8,1.73,15.88,1.89,23.68-.89a10,10,0,0,1,1.63-.65,3.66,3.66,0,0,1,1.31.3c-.18.45-.27,1.18-.57,1.29A47.35,47.35,0,0,1,96,23.74C93.13,24.29,90.22,24.41,88.75,24.56Z"/><path class="cls-1" d="M30.46,76.18a12.54,12.54,0,0,1,1.08,1A27.19,27.19,0,0,1,36,85.26c1.23,3,2.73,5.92,4.15,8.86.29.59.72,1.26-.1,1.57A1.65,1.65,0,0,1,38.59,95c-1.5-2.94-3-5.89-4.28-8.94-1.18-2.84-2.27-5.68-4.36-8a1.75,1.75,0,0,1-.27-1.23C29.71,76.62,30.13,76.44,30.46,76.18Z"/><path class="cls-1" d="M88.59,77.22a5.2,5.2,0,0,1-.49.86c-2.24,2.49-3.34,5.55-4.57,8.59-1.16,2.86-2.65,5.59-4,8.36-.31.63-.86,1.25-1.55.62-.27-.25-.16-1.14.05-1.61,1.43-3.25,3-6.42,4.39-9.7A24.59,24.59,0,0,1,86.65,77a2,2,0,0,1,1.28-.53C88.13,76.44,88.36,76.94,88.59,77.22Z"/><path class="cls-1" d="M59.93,9.83c0,1.21.07,2.43,0,3.63,0,.39-.57.74-.88,1.1-.29-.38-.81-.75-.83-1.14q-.12-3.5,0-7c0-.4.53-.78.81-1.17.32.4.85.78.91,1.21a29.26,29.26,0,0,1,0,3.38Z"/><path class="cls-1" d="M26.63,17.37a12.89,12.89,0,0,1-2.21-.63,1.24,1.24,0,0,1-.57-1.05c.06-.28.65-.58,1-.61a27.31,27.31,0,0,1,3.55,0c.37,0,.95.32,1,.61a1.22,1.22,0,0,1-.56,1A14.22,14.22,0,0,1,26.63,17.37Z"/><path class="cls-1" d="M91.39,17.38a14,14,0,0,1-2.27-.66,1.21,1.21,0,0,1-.53-1.06c.09-.28.67-.55,1.06-.57a30.65,30.65,0,0,1,3.54,0c.35,0,.93.3,1,.52a1.29,1.29,0,0,1-.46,1.1A13.9,13.9,0,0,1,91.39,17.38Z"/><path class="cls-1" d="M60.71,82.49c-1.13.1-2.26.25-3.39.27a1.32,1.32,0,0,1-1.06-.53,1.2,1.2,0,0,1,.46-1.08,5,5,0,0,1,4.58,0,1.24,1.24,0,0,1,.5,1.08c-.07.31-.61.51-.94.75Z"/></svg>