<svg id="Camada_1" data-name="Camada 1" xmlns="http://www.w3.org/2000/svg" viewBox="0 0 118 107"><defs><style>.cls-1{fill:#56b6f5;stroke:#56b6f5;stroke-miterlimit:10;stroke-width:2px;}</style></defs><title>Prancheta 1</title><path class="cls-1" d="M81.41,29.86l2.3,1.34c1-1.67,1.86-3.34,2.9-4.9.33-.5,1.28-1.14,1.61-1,1,.46.35,1.27,0,1.9Q78.52,44,68.8,60.78c-.29.5-1.08.71-1.64,1.06,0-.66-.22-1.46.07-2,4.78-8.4,9.63-16.76,14.46-25.14.32-.56.64-1.13,1-1.86L80.5,31.54c-.38.6-.73,1.12-1,1.67Q62,63.48,44.54,93.76A14,14,0,0,1,37.32,100a54,54,0,0,0-6.23,3.51c-1.6.91-2.1.59-2.15-1.26-.08-3.14-.42-6.3-.22-9.42a15.13,15.13,0,0,1,1.64-6.36Q51.43,49.63,72.72,12.92a8.76,8.76,0,0,1,5.89-4.24,3.72,3.72,0,0,0,1.83-1.24c.65-.79,1-1.78,1.62-2.63a4,4,0,0,1,6.87,4,4.07,4.07,0,0,1-.31.57c-1.24,1.83-2,3.59-1,6,.78,1.87,0,3.84-1,5.59ZM32.13,87.06l10.55,6.08L78.8,30.57,68.25,24.48ZM79.78,28.94c2-3.51,3.95-6.87,5.74-10.32A4.34,4.34,0,0,0,85.17,14a11.93,11.93,0,0,0-3.39-2.4c-2.41-1.45-5-1.17-6.55,1.16-2.19,3.2-4,6.65-6.06,10.09ZM31.34,88.79c-1.82,4.64-1,6.09,4.74,8.94,1.34.66,4.13-.92,5.35-3.11ZM85.28,11.36c.7-1.23,1.38-2.32,2-3.46a1.88,1.88,0,0,0-.78-2.66,1.93,1.93,0,0,0-2.74.52C83,6.84,82.36,8,81.64,9.26ZM31,97v4.36l3.76-2.19Z"/></svg>