<svg id="Camada_1" data-name="Camada 1" xmlns="http://www.w3.org/2000/svg" viewBox="0 0 118 107"><defs><style>.cls-1{fill:none;stroke:#56b6f5;stroke-miterlimit:10;stroke-width:2px;}</style></defs><title>Prancheta 1</title><path class="cls-1" d="M33.25,90.94H19.41V15.88H33.25Z"/><path class="cls-1" d="M33.28,91.54v2.91H19.39V91.54Z"/><path class="cls-1" d="M19.38,15V12.25H33.26V15Z"/><path class="cls-1" d="M16.55,8.78V7.12H36V8.78Z"/><path class="cls-1" d="M36,98.13V99.8H16.54V98.13Z"/><path class="cls-1" d="M35.87,97.41H17.15a1.18,1.18,0,0,1,1.2-1.25,20.23,20.23,0,0,1,2.26,0l13.09,0C34.61,96.09,35.51,96.13,35.87,97.41Z"/><path class="cls-1" d="M17.14,9.45h18.4l.15.34c-.52.24-1,.69-1.57.7q-7.78.08-15.56,0A4.73,4.73,0,0,1,17,9.8Z"/><path class="cls-1" d="M16,5.85H36.6l.1.29c-.31.14-.63.4-.94.4q-9.44,0-18.88,0a2.88,2.88,0,0,1-1-.41Z"/><path class="cls-1" d="M36.56,101.15H16l-.11-.27c.34-.16.67-.46,1-.46q9.42,0,18.84,0a2.92,2.92,0,0,1,1,.39Z"/><path class="cls-1" d="M34.29,11.39h-16v-.26h16Z"/><path class="cls-1" d="M33.83,95.52H18.62l-.07-.25a1.86,1.86,0,0,1,.6-.23q7.12,0,14.23,0a1.46,1.46,0,0,1,.5.21Z"/><path class="cls-1" d="M64,90.94H50.19V15.88H64Z"/><path class="cls-1" d="M64.06,91.54v2.91H50.17V91.54Z"/><path class="cls-1" d="M50.16,15V12.25H64V15Z"/><path class="cls-1" d="M47.33,8.78V7.12h19.5V8.78Z"/><path class="cls-1" d="M66.83,98.13V99.8H47.33V98.13Z"/><path class="cls-1" d="M66.65,97.41H47.93a1.18,1.18,0,0,1,1.2-1.25,20.23,20.23,0,0,1,2.26,0l13.09,0C65.39,96.09,66.29,96.13,66.65,97.41Z"/><path class="cls-1" d="M47.93,9.45h18.4l.15.34c-.52.24-1,.69-1.57.7q-7.78.08-15.56,0a4.73,4.73,0,0,1-1.6-.68Z"/><path class="cls-1" d="M46.82,5.85H67.38l.1.29c-.31.14-.63.4-.94.4q-9.44,0-18.88,0a2.88,2.88,0,0,1-1-.41Z"/><path class="cls-1" d="M67.34,101.15H46.78l-.11-.27c.34-.16.67-.46,1-.46q9.42,0,18.84,0a2.92,2.92,0,0,1,1,.39Z"/><path class="cls-1" d="M65.08,11.39h-16v-.26h16Z"/><path class="cls-1" d="M64.62,95.52H49.41l-.07-.25a1.86,1.86,0,0,1,.6-.23q7.12,0,14.23,0a1.46,1.46,0,0,1,.5.21Z"/><path class="cls-1" d="M96.35,90.94H82.51V15.88H96.35Z"/><path class="cls-1" d="M96.39,91.54v2.91H82.49V91.54Z"/><path class="cls-1" d="M82.48,15V12.25H96.36V15Z"/><path class="cls-1" d="M79.65,8.78V7.12h19.5V8.78Z"/><path class="cls-1" d="M99.15,98.13V99.8H79.65V98.13Z"/><path class="cls-1" d="M99,97.41H80.26a1.18,1.18,0,0,1,1.2-1.25,20.23,20.23,0,0,1,2.26,0l13.09,0C97.71,96.09,98.61,96.13,99,97.41Z"/><path class="cls-1" d="M80.25,9.45h18.4l.15.34c-.52.24-1,.69-1.57.7q-7.78.08-15.56,0a4.73,4.73,0,0,1-1.6-.68Z"/><path class="cls-1" d="M79.14,5.85H99.71l.1.29c-.31.14-.63.4-.94.4q-9.44,0-18.88,0a2.88,2.88,0,0,1-1-.41Z"/><path class="cls-1" d="M99.67,101.15H79.1l-.11-.27c.34-.16.67-.46,1-.46q9.42,0,18.84,0a2.92,2.92,0,0,1,1,.39Z"/><path class="cls-1" d="M97.4,11.39h-16v-.26h16Z"/><path class="cls-1" d="M96.94,95.52H81.73l-.07-.25a1.86,1.86,0,0,1,.6-.23q7.12,0,14.23,0a1.46,1.46,0,0,1,.5.21Z"/></svg>