<svg id="Camada_1" data-name="Camada 1" xmlns="http://www.w3.org/2000/svg" viewBox="0 0 176 52"><defs><style>.cls-1{fill:#f9f3ff;}</style></defs><title>Prancheta 1</title><path class="cls-1" d="M22.67,16.37a1.58,1.58,0,0,1-1-.35,1.93,1.93,0,0,1-.61-.79,1.12,1.12,0,0,1-.06-.79.54.54,0,0,1,.58-.35,2.41,2.41,0,0,0,1-.26,4,4,0,0,0,1-.7,4.31,4.31,0,0,0,.79-1,2.15,2.15,0,0,0,.32-1.08,1.54,1.54,0,0,0-.47-1.22,1.71,1.71,0,0,0-1.16-.41,7.07,7.07,0,0,0-3.14.93A20.1,20.1,0,0,0,16.19,13a36.4,36.4,0,0,0-3.87,3.87,30.89,30.89,0,0,0-3.4,4.77A28.8,28.8,0,0,0,6.5,27a17.39,17.39,0,0,0-.93,5.53A10.25,10.25,0,0,0,7,38.3a4.49,4.49,0,0,0,3.9,2.15,4.48,4.48,0,0,0,2.41-.67,6.63,6.63,0,0,0,1.8-1.63,8.31,8.31,0,0,0,1.13-2,5.13,5.13,0,0,0,.41-1.8,3.87,3.87,0,0,0-.12-1.08l-.17-.55c0-.12,0-.18,0-.2a1.11,1.11,0,0,1,.38,0,5.25,5.25,0,0,1,1.08.12,4,4,0,0,1,1,.38,3,3,0,0,1,.81.61,1.17,1.17,0,0,1,.32.81,5.53,5.53,0,0,1-.7,2.47,10,10,0,0,1-1.95,2.59,10.51,10.51,0,0,1-3.05,2,9.63,9.63,0,0,1-4,.81,8.3,8.3,0,0,1-2.79-.49A6.21,6.21,0,0,1,5,40.13,9,9,0,0,1,3.19,37a14.54,14.54,0,0,1-.7-4.86,21.54,21.54,0,0,1,1-6.4,30.47,30.47,0,0,1,2.65-6.11,34.39,34.39,0,0,1,3.81-5.41,36,36,0,0,1,4.42-4.36A21.93,21.93,0,0,1,18.83,7a9.59,9.59,0,0,1,4.07-1,3.91,3.91,0,0,1,3.17,1.28,5.16,5.16,0,0,1,1.08,3.43,5.25,5.25,0,0,1-.41,1.95,7.93,7.93,0,0,1-1,1.86,6.19,6.19,0,0,1-1.45,1.4A2.81,2.81,0,0,1,22.67,16.37Z"/><path class="cls-1" d="M41,31.55a1.21,1.21,0,0,1,0,.52q-.23.58-1,2.15a28.35,28.35,0,0,1-1.77,3.22A20.18,20.18,0,0,1,36,40.39a3.37,3.37,0,0,1-2.41,1.28q-.87,0-1.8-1.34a9.67,9.67,0,0,1-1.4-3.55q-.29.47-.84,1.25a13,13,0,0,1-1.25,1.51,7.92,7.92,0,0,1-1.54,1.25,3.22,3.22,0,0,1-1.72.52,3.59,3.59,0,0,1-1.13-.2,3.31,3.31,0,0,1-1.16-.7,3.64,3.64,0,0,1-.9-1.31,5.18,5.18,0,0,1-.35-2,12.18,12.18,0,0,1,.81-4.27,16.09,16.09,0,0,1,2.15-4,12.15,12.15,0,0,1,3.05-2.94,6.39,6.39,0,0,1,3.58-1.13,1.8,1.8,0,0,1,1.28.44,1.42,1.42,0,0,1,.47,1.08,1.22,1.22,0,0,1-.06.46.82.82,0,0,1,.35-.06,1.05,1.05,0,0,1,1,.7,4.43,4.43,0,0,1,.29,1.69,5.55,5.55,0,0,1-.29,1.75,15.94,15.94,0,0,1-.58,1.52q-.41.76-.87,1.46a15.19,15.19,0,0,0,.17,2.45,6.36,6.36,0,0,0,.44,1.7,1,1,0,0,0,1,.76q.41,0,1.13-.81A20.18,20.18,0,0,0,37,35.94q.79-1.13,1.48-2.38t1.1-2.12a.67.67,0,0,1,.73-.38A.75.75,0,0,1,41,31.55ZM25.17,38.77a2.31,2.31,0,0,0,1.34-.58A10.64,10.64,0,0,0,28,36.81q.7-.79,1.28-1.55t.81-1.11v-.64a11.51,11.51,0,0,1,.52-3.62,7.22,7.22,0,0,1,1.28-2.45h-.06c-.27,0-.41-.12-.41-.35s-.14-.35-.41-.35a3.45,3.45,0,0,0-2.33,1.08,11.1,11.1,0,0,0-2.06,2.66,16.7,16.7,0,0,0-1.45,3.36A10.88,10.88,0,0,0,24.59,37a4.24,4.24,0,0,0,.15,1.23Q24.88,38.71,25.17,38.77Z"/><path class="cls-1" d="M55.42,30.45a.49.49,0,0,1,0,.47l-.87,2.18A35.62,35.62,0,0,1,53,36.41a17.72,17.72,0,0,1-2,3,2.92,2.92,0,0,1-2.12,1.31A2.42,2.42,0,0,1,47.1,40a6.13,6.13,0,0,1-1.25-2,13.83,13.83,0,0,1-.76-2.82A24.54,24.54,0,0,1,44.77,32a4.25,4.25,0,0,1-1.69.35,4.82,4.82,0,0,1-2-.41,5.52,5.52,0,0,1-1.57-1,4.4,4.4,0,0,1-1-1.45,4.24,4.24,0,0,1-.35-1.69,1.2,1.2,0,0,1,.64-1,3.69,3.69,0,0,1,1.37-.58,2.34,2.34,0,0,1,1.37.12,1,1,0,0,1,.64,1.08,3.26,3.26,0,0,1-.23,1.22,2.22,2.22,0,0,0-.17.47.62.62,0,0,0,.29.23,2.8,2.8,0,0,0,1.16.17,3,3,0,0,0,1.63-.58A6.7,6.7,0,0,1,46,25.8q.84-1,1.48-1a.62.62,0,0,1,.55.41,4.32,4.32,0,0,1,.32.87,6.25,6.25,0,0,1,.12,1.22,4.66,4.66,0,0,1-.17,1.34,6.53,6.53,0,0,1-.41,1,5.06,5.06,0,0,1-.58,1,17.81,17.81,0,0,0,.12,3.61,10.26,10.26,0,0,0,.61,2.44,1.49,1.49,0,0,0,1.42,1.11q.47,0,1.08-.81A21.36,21.36,0,0,0,51.84,35q.67-1.13,1.28-2.41t1-2.21a.6.6,0,0,1,.64-.44A.69.69,0,0,1,55.42,30.45Z"/><path class="cls-1" d="M64.9,32.89a2.56,2.56,0,0,0,2-1A14.16,14.16,0,0,0,68.27,30a.63.63,0,0,1,.67-.35.61.61,0,0,1,.55.47.48.48,0,0,1-.06.52q-.17.35-.58,1a9.11,9.11,0,0,1-1,1.4,7,7,0,0,1-1.4,1.22,3,3,0,0,1-1.72.52,2.81,2.81,0,0,1-1.22-.35,9.36,9.36,0,0,1-1,2,18,18,0,0,1-1.57,2.12,9,9,0,0,1-1.89,1.69A3.57,3.57,0,0,1,57.1,41a3.79,3.79,0,0,1-1.92-.47,4,4,0,0,1-1.34-1.22,5.54,5.54,0,0,1-.79-1.72,7.38,7.38,0,0,1-.26-1.95,11.55,11.55,0,0,1,.93-4.68A13.79,13.79,0,0,1,56,27.31,11,11,0,0,1,58.85,25a5.66,5.66,0,0,1,2.68-.84,2.44,2.44,0,0,1,2.38,1.48,9.48,9.48,0,0,1,.7,4,7.5,7.5,0,0,1-.15,1.31q-.15.79-.32,1.6l.29.26A.7.7,0,0,0,64.9,32.89Zm-7.66,5.87a2.29,2.29,0,0,0,1.41-.64,9.68,9.68,0,0,0,1.44-1.51,11.91,11.91,0,0,0,1.17-1.83,8.65,8.65,0,0,0,.67-1.6,4.88,4.88,0,0,1-1-1,3.36,3.36,0,0,1-.49-2,3.71,3.71,0,0,1,.44-1.83,1.46,1.46,0,0,1,1.37-.79,1.44,1.44,0,0,0-.23-.81.78.78,0,0,0-.7-.35,2.86,2.86,0,0,0-1.64.73,8.91,8.91,0,0,0-1.82,2A13.39,13.39,0,0,0,56.39,32a9.81,9.81,0,0,0-.62,3.46,5.76,5.76,0,0,0,.41,2.33Q56.59,38.77,57.24,38.77Z"/><path class="cls-1" d="M84.21,30a.86.86,0,0,1,0,.76l-1,1.74q-.7,1.22-1.63,2.7T79.5,38.27a34.14,34.14,0,0,1-2.36,2.91,15,15,0,0,1-2.38,2.15,3.94,3.94,0,0,1-2.24.84,2.71,2.71,0,0,1-2-1.16A11.5,11.5,0,0,1,68.77,40a22.35,22.35,0,0,1-1.25-4.25A24.41,24.41,0,0,1,67.05,31a58.41,58.41,0,0,1,.81-9.48,52.46,52.46,0,0,1,2.3-9.1A23.78,23.78,0,0,1,73.8,5.53a6.11,6.11,0,0,1,4.77-2.7A2.67,2.67,0,0,1,81,4.22a6,6,0,0,1,.84,3.14,17.81,17.81,0,0,1-1.4,6.46,55.56,55.56,0,0,1-3.37,7q-2,3.49-4.1,6.54t-3.58,5a20.24,20.24,0,0,0,.38,3.14,23.74,23.74,0,0,0,.76,2.94,9.27,9.27,0,0,0,1,2.15q.55.84,1.13.84a4.1,4.1,0,0,0,2.56-1.34,26,26,0,0,0,2.88-3.17q1.42-1.83,2.68-3.81t2-3.2a.71.71,0,0,1,.73-.44A.83.83,0,0,1,84.21,30ZM78,8.35a4.08,4.08,0,0,0-2.15,1.13,12.56,12.56,0,0,0-2.79,3.64,29.94,29.94,0,0,0-2.5,6.46,40.8,40.8,0,0,0-1.28,9.6q.81-1.16,1.83-2.73t2.09-3.29q1.08-1.72,2.06-3.55T77.08,16a31.47,31.47,0,0,0,1.28-3.29,9,9,0,0,0,.49-2.7Q78.86,8.35,78,8.35Z"/><path class="cls-1" d="M94.87,29.53a3,3,0,0,1-1.32-.29,4.34,4.34,0,0,1-1-.6,1,1,0,0,1-.39-.6c0-.19.11-.29.39-.29a4.5,4.5,0,0,0,1.63-.7,14.3,14.3,0,0,0,2.52-1.89A13.66,13.66,0,0,0,99,22.37a6.32,6.32,0,0,0,1-3.42q0-1.5-2.23-1.5a10.84,10.84,0,0,0-4.07,1,19.13,19.13,0,0,0-4.36,2.54,16.47,16.47,0,0,0-3.45,3.58,7,7,0,0,0-1.4,4.07,4.29,4.29,0,0,0,.78,2.52,11.37,11.37,0,0,0,1.92,2.1,30.7,30.7,0,0,0,2.52,1.95,21.33,21.33,0,0,1,2.52,2,11.16,11.16,0,0,1,1.92,2.41,5.87,5.87,0,0,1,.78,3,7.51,7.51,0,0,1-.49,2.83,6.49,6.49,0,0,1-1.25,2,5.28,5.28,0,0,1-1.66,1.22,4.09,4.09,0,0,1-1.69.42,4.47,4.47,0,0,1-2.78-.88,2.83,2.83,0,0,1-1.17-2.39,3.64,3.64,0,0,1,.16-1.14,1.82,1.82,0,0,1,.42-.73,1.66,1.66,0,0,1,.57-.52,1.85,1.85,0,0,0,.57.88,3,3,0,0,0,.88.57A3.5,3.5,0,0,0,90,45.2a2.46,2.46,0,0,0,1.43-.62,2.67,2.67,0,0,0,.8-2.23,4.53,4.53,0,0,0-.75-2.54,11.38,11.38,0,0,0-1.87-2.15q-1.12-1-2.41-2a25.49,25.49,0,0,1-2.41-2.08,11.1,11.1,0,0,1-1.87-2.39,5.68,5.68,0,0,1-.75-2.91,11.08,11.08,0,0,1,1.48-5.53,17.83,17.83,0,0,1,3.74-4.62,18.43,18.43,0,0,1,5-3.17,13.12,13.12,0,0,1,5.16-1.17,4,4,0,0,1,2.13.54,5,5,0,0,1,1.45,1.35,6,6,0,0,1,.86,1.76,6.32,6.32,0,0,1,.29,1.79,10.37,10.37,0,0,1-.7,3.71,13.92,13.92,0,0,1-1.76,3.29,10.18,10.18,0,0,1-2.36,2.36A4.43,4.43,0,0,1,94.87,29.53Z"/><path class="cls-1" d="M113.86,39a1.09,1.09,0,0,1,0,.47q-.21.52-.86,1.92a25.22,25.22,0,0,1-1.58,2.88,18,18,0,0,1-2,2.62,3,3,0,0,1-2.15,1.15q-.78,0-1.61-1.19a8.63,8.63,0,0,1-1.25-3.17q-.26.42-.75,1.12a11.57,11.57,0,0,1-1.12,1.35,7.06,7.06,0,0,1-1.37,1.12,2.88,2.88,0,0,1-1.53.47,3.2,3.2,0,0,1-1-.18,3,3,0,0,1-1-.62,3.25,3.25,0,0,1-.8-1.17A4.62,4.62,0,0,1,96.47,44a10.87,10.87,0,0,1,.73-3.81,14.35,14.35,0,0,1,1.92-3.55A10.83,10.83,0,0,1,101.84,34,5.7,5.7,0,0,1,105,33a1.61,1.61,0,0,1,1.14.39,1.26,1.26,0,0,1,.42,1,1.09,1.09,0,0,1-.05.42.73.73,0,0,1,.31-.05.94.94,0,0,1,.93.63A4,4,0,0,1,108,36.8a5,5,0,0,1-.26,1.56,14.22,14.22,0,0,1-.52,1.36q-.36.68-.78,1.3a13.51,13.51,0,0,0,.16,2.19,5.67,5.67,0,0,0,.39,1.51.92.92,0,0,0,.86.68q.36,0,1-.73a18,18,0,0,0,1.35-1.74q.7-1,1.32-2.13t1-1.89a.59.59,0,0,1,.65-.34A.67.67,0,0,1,113.86,39ZM99.74,45.46a2.06,2.06,0,0,0,1.19-.52,9.46,9.46,0,0,0,1.3-1.22q.62-.7,1.14-1.38t.73-1v-.57a10.25,10.25,0,0,1,.47-3.23,6.44,6.44,0,0,1,1.14-2.19h-.05c-.24,0-.36-.1-.36-.31s-.12-.31-.36-.31a3.08,3.08,0,0,0-2.08,1A9.9,9.9,0,0,0,101,38.05a14.89,14.89,0,0,0-1.3,3,9.71,9.71,0,0,0-.49,2.84,3.77,3.77,0,0,0,.13,1.1Q99.48,45.41,99.74,45.46Z"/><path class="cls-1" d="M114.79,32.64q.83,0,.83,2.08a5.51,5.51,0,0,1-.13,1.17q-.13.6-.29,1.17t-.36,1.3a10.37,10.37,0,0,0-.1,1.35,3.9,3.9,0,0,0,0,.91q.05.39.26.39t.83-1q.57-1,1.35-2.21a18,18,0,0,1,1.69-2.21,2.54,2.54,0,0,1,1.84-1,.88.88,0,0,1,.88.75,7,7,0,0,1,.21,1.84q0,1.09-.08,2.41a12.09,12.09,0,0,0,.08,2.41,4.46,4.46,0,0,0,.65,1.84,1.81,1.81,0,0,0,1.63.75,1.67,1.67,0,0,0,1.19-.75A12.24,12.24,0,0,0,126.49,42a19.85,19.85,0,0,0,1.06-2.21q.47-1.14.73-1.92a.71.71,0,0,1,.47-.49.72.72,0,0,1,.67.08q.57.42.31.93l-.93,2.31a28.47,28.47,0,0,1-1.45,3,14.55,14.55,0,0,1-1.82,2.62,2.7,2.7,0,0,1-1.92,1.12,3.22,3.22,0,0,1-2.18-.67,4,4,0,0,1-1.14-1.69,7.43,7.43,0,0,1-.42-2.21q-.05-1.19-.08-2.21a13.92,13.92,0,0,0-.13-1.69q-.1-.67-.52-.67a1.16,1.16,0,0,0-.93.6,7.53,7.53,0,0,0-.78,1.5q-.36.91-.7,1.95t-.67,1.95a6.77,6.77,0,0,1-.75,1.5,1.13,1.13,0,0,1-.88.6,1.11,1.11,0,0,1-1-.78,7.35,7.35,0,0,1-.54-2,21.78,21.78,0,0,1-.21-2.78q0-1.53,0-3a10,10,0,0,1,.26-2.46,6.66,6.66,0,0,1,.6-1.61,2.62,2.62,0,0,1,.7-.86A1.12,1.12,0,0,1,114.79,32.64Z"/><path class="cls-1" d="M139.9,37.67a.73.73,0,0,1-.05.62l-1.43,1.95A27.83,27.83,0,0,1,136,43a20.7,20.7,0,0,1-2.91,2.52,5.16,5.16,0,0,1-3,1.09,3.19,3.19,0,0,1-2.36-1,4.46,4.46,0,0,1-1-3.22,11.08,11.08,0,0,1,.73-3.84A14.65,14.65,0,0,1,129.42,35a11.28,11.28,0,0,1,2.75-2.7,5.63,5.63,0,0,1,3.22-1.06,1.7,1.7,0,0,1,1.17.39,1.23,1.23,0,0,1,.44,1,1,1,0,0,1-.29.73.91.91,0,0,1-.7.31q-.36,0-.36-.31c0-.21-.12-.31-.36-.31a3,3,0,0,0-2,1,10.83,10.83,0,0,0-1.84,2.36,13.8,13.8,0,0,0-1.32,3,9.87,9.87,0,0,0-.49,2.85,2,2,0,0,0,.34,1.3,2.09,2.09,0,0,0,.65.57,2.83,2.83,0,0,0,.62.1,3.9,3.9,0,0,0,2.1-.73,13.22,13.22,0,0,0,2.13-1.74,21.48,21.48,0,0,0,1.87-2.13q.86-1.11,1.37-1.95a.68.68,0,0,1,1.25.1Z"/><path class="cls-1" d="M153.34,37.16a.53.53,0,0,1,.16.73q-.21.62-.7,1.92t-1.14,2.59a15.61,15.61,0,0,1-1.37,2.28,2,2,0,0,1-1.45,1,2.53,2.53,0,0,1-2.08-.88,6.69,6.69,0,0,1-1.12-1.92q-.39-1-.62-1.92t-.54-.88q-.68,0-1.06,1.22t-.75,2.7a26.89,26.89,0,0,1-.8,2.7q-.44,1.22-1.17,1.22A1.65,1.65,0,0,1,139.2,47a7.65,7.65,0,0,1-.83-2.31,21.38,21.38,0,0,1-.39-3q-.1-1.58-.1-2.88,0-1.5.18-3.94t.62-5.24A51,51,0,0,1,139.9,24a26.88,26.88,0,0,1,1.95-5.11,12.85,12.85,0,0,1,2.78-3.74,5.47,5.47,0,0,1,3.79-1.45,1.93,1.93,0,0,1,1.12.34,2.92,2.92,0,0,1,.83.88,4.5,4.5,0,0,1,.52,1.25,5.47,5.47,0,0,1,.18,1.38,13.29,13.29,0,0,1-.6,3.74,33.49,33.49,0,0,1-1.53,4.12q-.93,2.1-2.13,4.23t-2.44,4q-1.25,1.92-2.41,3.55L140,40q.05.52.13,1.09t.18,1a6,6,0,0,0,.21.75c.07.19.16.29.26.29s.38-.36.62-1.09.53-1.51.86-2.36a14.27,14.27,0,0,1,1.17-2.36,1.89,1.89,0,0,1,1.56-1.09q.78,0,1.19,1.06a21.4,21.4,0,0,1,.75,2.36,17.85,17.85,0,0,0,.78,2.36q.44,1.06,1.27,1.06.36,0,.83-.62a9.42,9.42,0,0,0,.91-1.53q.44-.91.83-1.87t.65-1.69a.65.65,0,0,1,.54-.47A.73.73,0,0,1,153.34,37.16Zm-5.76-18.52a3.94,3.94,0,0,0-1.74.83,9.38,9.38,0,0,0-2.49,2.93,23.43,23.43,0,0,0-2.28,5.71,38.66,38.66,0,0,0-1.17,9.16q1.09-1.56,2.54-3.81t2.78-4.67a46.06,46.06,0,0,0,2.26-4.7,10.56,10.56,0,0,0,.93-3.84,2.78,2.78,0,0,0-.21-1.17A.67.67,0,0,0,147.58,18.63Z"/><path class="cls-1" d="M163.92,37.93a12.53,12.53,0,0,1-1.48,2.23,30.69,30.69,0,0,1-2.41,2.7,19.68,19.68,0,0,1-2.88,2.39,7.16,7.16,0,0,1-2.88,1.25,2.48,2.48,0,0,1-2.21-.8A4.4,4.4,0,0,1,151,43.17a10.72,10.72,0,0,1,.13-3.68,14.45,14.45,0,0,1,1.25-3.68,10.17,10.17,0,0,1,2.13-2.91,5.05,5.05,0,0,1,2.83-1.4,1.47,1.47,0,0,1,1.38.47,2.47,2.47,0,0,1,.6,1.25,9.21,9.21,0,0,1-.08,1.69,7.17,7.17,0,0,1-.75,2.41,7.72,7.72,0,0,1-1.87,2.33,6.67,6.67,0,0,1-3.32,1.45,3.89,3.89,0,0,0,.05,1.45q.26,1.82,1.35,1.66a5.19,5.19,0,0,0,2-.83,19.08,19.08,0,0,0,4.49-3.94,12.05,12.05,0,0,0,1.5-2.23.55.55,0,0,1,.6-.39.74.74,0,0,1,.65.44A.77.77,0,0,1,163.92,37.93Zm-10.53,1.61a5,5,0,0,0,2.31-1.19,6.2,6.2,0,0,0,1.87-3.48,4.33,4.33,0,0,0,.08-1.14.29.29,0,0,0-.31-.26,2.51,2.51,0,0,0-1.35.67,6.45,6.45,0,0,0-1.14,1.43,10,10,0,0,0-.88,1.89A15.37,15.37,0,0,0,153.39,39.54Z"/><path class="cls-1" d="M167.86,41.15a1.22,1.22,0,0,1-.62-.18,1.81,1.81,0,0,1-.47-.36.56.56,0,0,1-.16-.36c0-.12.09-.18.26-.18a1.91,1.91,0,0,0,1.17-.54,8.79,8.79,0,0,0,2.23-3,3.61,3.61,0,0,0,.39-1.43q0-.47-.62-.47a3.44,3.44,0,0,0-1.56.57,15.18,15.18,0,0,0-1.95,1.35,13.67,13.67,0,0,0-1.69,1.61,2.36,2.36,0,0,0-.73,1.35,2.68,2.68,0,0,0,.75,1.89,13.75,13.75,0,0,0,1.66,1.5q.91.7,1.66,1.4A2.23,2.23,0,0,1,169,46a3.51,3.51,0,0,1-.86,2.28,3.07,3.07,0,0,1-2.52,1,4.11,4.11,0,0,1-2.13-.52,1.7,1.7,0,0,1-.88-1.56,1.87,1.87,0,0,1,.49-1.38,1.65,1.65,0,0,1,1.22-.49,1.59,1.59,0,0,0,.36,1,1.81,1.81,0,0,0,.78.63.79.79,0,0,0,.78-.1q.36-.26.36-1.2a1.58,1.58,0,0,0-.73-1.27q-.73-.55-1.63-1.17a8.68,8.68,0,0,1-1.63-1.46,3.2,3.2,0,0,1-.73-2.19,5,5,0,0,1,.86-2.71,10.76,10.76,0,0,1,2.1-2.42,11.3,11.3,0,0,1,2.67-1.72,6.38,6.38,0,0,1,2.62-.65,2,2,0,0,1,1.74.81,3.24,3.24,0,0,1,.54,1.85,5.57,5.57,0,0,1-.44,2,10.86,10.86,0,0,1-1.09,2.09,7.32,7.32,0,0,1-1.45,1.62A2.48,2.48,0,0,1,167.86,41.15Z"/></svg>